<?xml version="1.0" standalone="no"?>
<!DOCTYPE svg PUBLIC "-//W3C//DTD SVG 20010904//EN"
 "http://www.w3.org/TR/2001/REC-SVG-20010904/DTD/svg10.dtd">
<svg version="1.0" xmlns="http://www.w3.org/2000/svg"
 width="1350.000000pt" height="1350.000000pt" viewBox="0 0 1350.000000 1350.000000"
 preserveAspectRatio="xMidYMid meet">
<metadata>
Created by potrace 1.11, written by Peter Selinger 2001-2013
</metadata>
<g transform="translate(0.000000,1350.000000) scale(0.100000,-0.100000)"
fill="#000000" stroke="none">
<path d="M913 10340 c-242 -34 -408 -130 -478 -275 -25 -51 -30 -75 -33 -161
-3 -74 0 -117 12 -160 106 -380 497 -846 1251 -1494 438 -375 1144 -904 1720
-1287 200 -133 575 -375 632 -408 2 -1 14 -80 28 -176 22 -155 48 -268 117
-504 26 -91 139 -360 191 -455 128 -233 265 -423 478 -659 190 -211 571 -474
868 -599 131 -56 544 -192 580 -192 13 0 66 -9 119 -19 392 -79 889 -40 1325
103 128 42 322 129 453 203 54 31 104 56 109 56 6 0 125 -47 265 -106 1061
-441 1990 -747 2850 -938 198 -44 516 -96 669 -110 177 -15 523 -7 611 16 214
53 330 132 394 265 29 61 31 72 30 170 -1 86 -6 120 -29 190 -136 416 -607
938 -1527 1693 -265 217 -574 450 -938 706 -198 139 -749 507 -902 602 l-75
46 -12 149 c-60 726 -322 1302 -824 1813 -152 155 -285 265 -455 378 -268 178
-529 296 -829 373 -251 65 -340 75 -653 72 -255 -2 -300 -5 -430 -28 -171 -30
-338 -67 -435 -96 -136 -40 -454 -187 -583 -269 -68 -44 -127 -79 -131 -79 -3
0 -92 36 -196 81 -213 90 -353 146 -730 291 -1069 412 -2050 694 -2745 789
-171 23 -586 35 -697 19z m1757 -760 c457 -68 979 -205 1675 -442 158 -54 594
-214 601 -221 2 -1 -18 -26 -44 -55 l-47 -53 -180 66 c-328 119 -851 278
-1140 345 -757 176 -1210 136 -1305 -117 -79 -211 75 -505 471 -902 322 -322
689 -627 1199 -995 74 -54 135 -102 134 -107 -1 -5 -2 -38 -2 -74 l-2 -65
-220 155 c-686 483 -1124 839 -1521 1235 -517 516 -683 887 -493 1099 73 81
188 129 356 151 105 13 361 3 518 -20z m1140 -739 c131 -23 469 -105 705 -172
187 -53 172 -46 149 -69 -19 -19 -21 -18 -172 25 -157 45 -465 112 -627 136
-135 21 -416 18 -486 -3 -223 -69 -264 -251 -115 -502 108 -181 502 -584 769
-785 54 -41 71 -71 47 -86 -11 -7 -216 160 -445 360 -166 146 -337 319 -431
436 -283 353 -271 597 34 674 86 22 409 14 572 -14z m404 -287 c150 -26 356
-73 356 -80 0 -9 -83 -129 -92 -132 -4 -2 -8 -8 -8 -14 0 -5 -31 -65 -69 -132
-132 -233 -206 -406 -260 -604 l-12 -43 -27 20 c-15 10 -89 78 -164 151 -353
338 -483 571 -407 728 65 134 308 172 683 106z m5676 -2303 c587 -423 1037
-796 1385 -1152 352 -360 518 -630 518 -845 0 -157 -108 -272 -308 -327 -92
-25 -351 -34 -507 -18 -562 60 -1389 286 -2256 618 l-104 40 53 46 52 45 81
-30 c198 -73 609 -204 841 -267 322 -87 669 -157 906 -182 154 -16 404 -7 491
19 260 75 330 279 191 556 -169 337 -677 834 -1417 1386 l-218 163 6 45 c3 25
6 58 6 74 l0 29 68 -48 c37 -26 132 -94 212 -152z m-262 -283 c276 -223 581
-520 705 -686 135 -180 196 -332 176 -437 -45 -242 -392 -287 -1059 -138 -128
28 -507 130 -528 142 -10 6 -8 11 7 25 20 18 25 18 163 -17 456 -116 773 -158
965 -128 263 42 344 201 228 446 -61 129 -151 241 -360 451 -152 153 -360 343
-392 359 -4 2 9 45 14 45 2 0 39 -28 81 -62z m48 -291 c133 -140 223 -259 275
-362 73 -148 70 -235 -10 -315 -68 -68 -115 -82 -297 -87 -163 -5 -333 14
-522 60 l-93 22 63 85 c145 197 286 457 364 667 l37 102 38 -30 c21 -16 86
-80 145 -142z"/>
</g>
</svg>
